<?xml version="1.0" encoding="UTF-8" standalone="no"?>
<svg
   width="4096"
   height="4096"
   viewBox="0 0 1254 1254"
   role="img"
   aria-label="Logo Vigilância Sanitária VISA Ipixuna do Pará com fundo transparente"
   version="1.1"
   id="svg3"
   sodipodi:docname="logoVisa_4k.svg"
   inkscape:version="1.4.2 (f4327f4, 2025-05-13)"
   xmlns:inkscape="http://www.inkscape.org/namespaces/inkscape"
   xmlns:sodipodi="http://sodipodi.sourceforge.net/DTD/sodipodi-0.dtd"
   xmlns="http://www.w3.org/2000/svg"
   xmlns:svg="http://www.w3.org/2000/svg">
  <defs
     id="defs3" />
  <sodipodi:namedview
     id="namedview3"
     pagecolor="#ffffff"
     bordercolor="#000000"
     borderopacity="0.25"
     inkscape:showpageshadow="2"
     inkscape:pageopacity="0.0"
     inkscape:pagecheckerboard="0"
     inkscape:deskcolor="#d1d1d1"
     showguides="true"
     inkscape:zoom="0.11313709"
     inkscape:cx="1834.0581"
     inkscape:cy="2514.6484"
     inkscape:window-width="1440"
     inkscape:window-height="837"
     inkscape:window-x="-8"
     inkscape:window-y="-8"
     inkscape:window-maximized="1"
     inkscape:current-layer="svg3" />
  <path
     fill="#071fc5"
     fill-rule="evenodd"
     d="m 720,843 10.10307,27.65775 3.01652,8.05979 L 732,879 l -17,3 -0.82061,0.0165 0.41856,-3.58143 L 715,876 718.59795,852.04956 Z M 605.23918,797.04327 604,826 h 1 7 1 18 v 2 106 2 h 26 v -2 -48 -1 -56 -3 h 26 2 l -0.23918,-28.95673 H 643.75706 Z M 816,795 c 2.63547,1.71557 3.02424,2.48703 4.28246,5.369 0.30485,0.69827 1.16129,4.09099 1.31549,4.83714 0.19043,0.92141 0.33487,1.85538 0.40205,2.79386 0.0952,1.32993 0.25214,2.69072 0,4 -0.33946,1.76267 -1.01184,3.50141 -2,5 -0.77851,1.18064 -1.85273,2.17309 -3,3 -2.41866,1.74327 -8,4 -8,4 L 794.28246,829.29898 793,825 l -5,-21 7,-3.33333 7,-3.33334 L 809,794 c 0,0 5.02463,-0.28588 7,1 z m -91.90716,-0.22266 -9.64438,1.17113 -9.64437,1.17112 L 704,801 v 0 0 0 0 0 0 0 0 0 0 0 0 0 0 0 L 682.57718,938.25369 705,935 l 1.66667,-8 1.66666,-8 L 710,911 v 0 0 0 0 l 35,-4.8 8,20.8 23,-5 z M 578,793 561.56491,928.11959 v 0 0 0 0 0 0 0 0 0 0 0 0 0 0 0 0 0 0 0 0 l 8.29006,1.13402 8.29006,1.13401 8.29006,1.13402 v 0 0 0 0 0 0 0 0 0 0 0 0 0 0 0 0 0 0 0 0 0 L 600,795.80409 Z m -148,-13 -4.6845,43 v 0 0 0 0 0 0 L 406,810 Z m 389,-16 c -2.93465,-0.62277 -6.03874,-0.48055 -9,0 -3.12144,0.50654 -9,3 -9,3 l -9.84563,3.98524 L 778,777 l -19.52214,9.33825 v 0 0 0 0 0 0 0 0 0 0 L 793,915 803.5,910.5 814,906 v 0 0 0 l -12,-50 5.03304,-1.9402 L 812,852 828.84563,871.83087 847,893 871,882 872.43509,881.15263 835,839 c 0,0 4.39859,-5.07654 6,-8 1.36824,-2.4978 2.16715,-5.2765 3,-8 0.40091,-1.31101 0.71809,-2.64999 0.95673,-4 0.32384,-1.83207 0.58264,-3.6849 0.64122,-5.54445 C 845.71836,809.63373 845.56748,805.78137 845,802 c -0.78094,-2.6153 -1.07419,-5.34309 -1.71754,-7.98977 C 842.668,791.63081 841.96683,789.2593 841,787 c -1.93628,-4.52472 -4.06214,-9.05143 -7,-13 -1.68837,-2.26923 -3.66849,-4.39872 -6,-6 -2.70618,-1.8586 -5.78856,-3.31849 -9,-4 z m -323.9347,2.65014 -8.61684,-3.17493 L 457,895 v 0 0 0 0 0 0 0 0 0 0 0 0 0 l 20,8 1.46184,0.5712 L 497,823 l 15,92 v 0 0 0 0 0 0 0 0 0 l 22,8 31,-131 v 0 0 0 0 0 0 0 0 0 0 l -21.66175,-7.56442 v 0 0 0 0 0 L 526,864 512.29898,773 v 0 0 0 0 0 0 0 0 0 0 0 l -8.61684,-3.17493 z m 227.91994,-20.34141 -8.16913,8.84071 -8.16912,8.84072 -8.16913,8.84071 L 701,776 l 12,13 7.33333,-8.33333 7.33334,-8.33334 L 735,764 Z M 921,743 946.01476,766.9302 945,768 930,781 v 0 0 0 0 0 z m -62,-7 -16,10 -3.47836,2.32573 v 0 0 0 L 889,871 905,861 Z M 437.65775,732.92368 358,829 354.98348,832.62471 376,848 l 14,-17 31,21 -2,25 12,7.16404 c 2.97594,1.81698 8.98671,5.41024 12,7.16404 v 0 0 0 0 0 0 0 0 0 0 0 0 0 0 0 0 0 0 0 L 454,745 439,734 Z M 906,698 892,710 v 0 0 0 0 0 0 0 0 0 0 0 0 0 0 0 L 921.67651,850.04428 924,848 l 18,-15 -6,-22 14,-13 14,-13 17,14 18,-16 z M 364,672 c -3.61932,-0.58733 -7.41321,-0.76117 -11,0 -3.21144,0.68151 -6.29382,2.1414 -9,4 -3.10867,2.13503 -5.60908,5.08354 -8,8 -1.52392,1.85888 -2.84104,3.89415 -4,6 -1.58289,2.87615 -2.83616,5.93027 -4,9 -0.53207,1.40339 -1.02982,2.82832 -1.35877,4.29269 -0.34709,1.54509 -0.53411,3.12734 -0.64123,4.70731 -0.22547,3.3257 -0.50288,6.70482 0,10 0.84298,5.52373 2.618,10.94547 5,16 3.90189,8.27968 10.62737,14.95898 15,23 1.56835,2.88411 3.31849,5.78856 4,9 0.34599,1.63036 0.31518,3.36341 0,5 -0.33946,1.76267 -1.01184,3.50141 -2,5 -1.03802,1.57419 -2.25792,3.27841 -4,4 -1.84776,0.76537 -4.07257,0.53387 -6,0 -1.87313,-0.51883 -3.51904,-1.74122 -5,-3 -4.32517,-3.67629 -7.79107,-8.31759 -11,-13 -2.36108,-3.44525 -4.04916,-7.30695 -6,-11 -2.7361,-5.17958 -4.98564,-10.61635 -8,-15.64699 -6.17818,5.71902 -12.40851,11.49064 -18.01476,17.78659 0,0 6.11041,14.86058 10.01476,21.8604 2.34181,4.19846 4.95216,8.28223 8,12 3.88525,4.73924 8.37038,8.98475 13,13 1.25909,1.092 2.56627,2.15017 4,3 3.46476,2.0537 7.06361,4.14734 11,5 3.90934,0.8468 8.107,0.91901 12,0 3.62708,-0.85624 6.97668,-2.82091 10,-5 2.67696,-1.92945 4.90794,-4.4481 7,-7 1.52392,-1.85888 2.84104,-3.89415 4,-6 1.58289,-2.87615 2.96315,-5.88508 4,-9 0.73434,-2.96298 1.5944,-5.96397 2,-9 0.33009,-3.31695 0.16017,-6.67052 0,-10 -0.0671,-1.39455 -0.14961,-2.796 -0.40205,-4.16916 C 374.23357,757.84878 373.68699,755.89457 373,754 c -1.17375,-2.258 -1.97772,-4.68424 -3,-7 -2.70132,-5.36787 -6.91569,-9.84266 -10,-15 -2.90848,-4.86332 -6.62563,-9.50253 -8,-15 -0.72761,-2.91043 -0.68926,-6.08025 0,-9 0.17125,-0.72542 0.53141,-1.42036 1,-2 1.34183,-1.65983 2.91471,-3.54488 5,-4 2.68552,-0.58612 5.63803,0.59406 8,2 4.66275,2.77547 8.00684,7.47392 11,12 4.44338,6.71902 10,22 10,22 6.34823,-3.6129 12.69006,-7.23619 19,-10.91544 0,0 -1.20245,-4.81276 -1.83714,-7.21044 C 403.46633,717.24283 402.97377,714.54178 402,712 c -1.59991,-4.17616 -3.71151,-8.15776 -6,-12 -2.08212,-3.49576 -4.38481,-6.8829 -7,-10 -3.33287,-3.97252 -6.94198,-7.77179 -11,-11 -2.46094,-1.95771 -5.1551,-3.66007 -8,-5 -1.90723,-0.89829 -3.91904,-1.66231 -6,-2 z m 663,-225 1,1 -2,7.08969 L 1024.7886,459 1017,484 v 0 l -17,-19 4.6913,-3.16913 z m 14,-41 -97,58 v 0 0 0 l 10,11.5 10,11.5 16,-10 10,11.33333 10,11.33334 10,11.33333 -1.598,8.59795 -2.0865,9.92369 L 1005,535 l 19,22 h 2 l 33,-131 v 0 0 0 0 l -16,-19 z m -397,-11 25,38 -1,1 h -8 l -4,5 v 40 l 3,4 h 123 l 1,1 v 61 l 4,4 h 29 l 4,-4 v -11 0 l 30,31 -16,16 -14,14 v 0 -11 l -4,-4 h -28 l -5,3 v 3.5 32.5 1.04228 9.97886 2.97886 4 1 10 l -1,1 H 659 l -3,3 v 42 l 4,4 h 7 v 0 L 644,737.35301 631.5,717 619,698 v 0 h 8 l 4,-4 v -42 l -3,-3 H 502 l -1,-1 v -65 l -4,-3 h -28 l -4,4 v 8 3.89693 L 435,564 465,532.98524 V 535 545 l 4,4 h 29 l 3,-3 v -62 l 1,-1 h 127 l 3,-4 v -41 l -4,-4 h -8 l -1,-1 z m 0,-14 h -5 l -18,28 -18,28 v 5 l 4,3 h 13 l 1,1 v 24 l -1,1 H 496 l -4,2 -1,2 v 61 1 h -16 v -1 -20 l -3.01476,-3 H 468 l -46,49 v 5 l 46,49 h 3 l 4,-3 v -20 -1 h 16 v 1 65 l 3,2 h 127 v 2 25 h -13 c 0,0 -4.21411,3.01558 -5,5 -0.86787,2.19143 1,6 1,6 30.82118,48.66914 9.27703,14.02696 35,54 H 643.40205 648 c 12.74071,-17.50183 24.24555,-35.83403 36,-54 0,0 1.61877,-4.06914 1,-6 -0.71931,-2.24458 -2.57122,-3.78561 -5,-5 h -14 v -25 -2 h 125 l 3,-3 v -64.5 h 16 v 9.5 0 11.42282 c 0,0 2.59716,2.12598 4,2.57718 0.95197,0.30619 2.04291,0.28978 3,0 1.15028,-0.34828 3,-2 3,-2 l 44,-48 v -4 l -42,-45 c 0,0 -2.98594,-3.29351 -5,-4 -0.94363,-0.33101 -2.07612,-0.38268 -3,0 -1.30656,0.5412 -3,3 -3,3 v 20.5 H 794 V 475 l -4,-4 H 668 l -1,-1 v -24 l 1,-1 h 13 l 4,-3 v -5 c -5.67455,-9.7078 -11.84453,-18.59581 -18,-28 l -18,-28 z m -368,-8 -22,24 -2.05604,2.43926 L 265,434 265.93456,437.09346 269,447 269.93456,449.90654 275,466 l 0.84111,3.14018 2.90189,9.71964 L 277,480 216.414,445.43149 214,449 196,474 194.60596,476.32967 294,521 l 17,-19 -1.43926,-4.56074 -2.12148,-7.15889 -4.37318,-16.21429 -0.99125,-3.6035 L 301,466 l -20,-82 -0.87853,-3.62618 -2.11272,-9.39616 z m 37,-33 -22,22 56,98 3,1 18,-16 2,-3 -53,-100 -2,-2 z m 680,15 -24,-20 -54,101 v 3 l 20,17 3,-2 z M 414,281 c -5.21715,-1.10715 -10.70663,-0.65164 -16,0 -1.36407,0.16792 -2.71604,0.50977 -4,1 -6.68619,2.55286 -13.23786,5.755 -19,10 -6.45204,4.75325 -12.01095,10.72851 -17,17 -1.95771,2.46094 -3.62988,5.16951 -5,8 -2.15903,4.46029 -4.0112,9.1443 -5,14 -1.13269,5.56231 -1.17756,11.32632 -1,17 0.0315,1.00691 0.17193,2.01142 0.36577,3 0.39885,2.03412 0.92675,4.05161 1.63423,6 4.6325,12.75783 10.38177,25.15005 17,37 1.17206,2.09858 2.47608,4.14112 4,6 2.39092,2.91646 4.94061,5.79492 8,8 2.41866,1.74327 5.20377,2.96561 8,4 2.578,0.95366 5.27186,1.66415 8,2 2.31585,0.28509 4.68922,0.32364 7,0 4.80649,-0.67317 9.50887,-2.16007 14,-4 3.86489,-1.58337 7.52259,-3.68654 11,-6 3.55408,-2.36447 7.07153,-4.89415 10,-8 4.05261,-4.29809 7.26753,-9.35942 10.23893,-14.4651 2.27668,-3.91197 4.26403,-8.02448 5.76107,-12.29597 0.79041,-2.25526 1.2279,-4.62321 1.67651,-6.97048 0.14338,-0.75022 0.28064,-1.50585 0.32349,-2.26845 0.20577,-3.66248 -0.0374,-7.34292 -0.32349,-11 -0.26211,-3.35006 -0.49357,-6.7317 -1.27446,-10 -1.42232,-5.95285 -3.50189,-11.78442 -6.16312,-17.29597 C 445.35142,319.86595 444.1782,318.17413 443,316.50738 442.38288,315.63436 441,314 441,314 l -43,26 2,5 7,16 h 2 l 14,-9 3,-2 c 0,0 1.84365,10.06043 1,15 -0.42739,2.50236 -1.57679,4.89788 -3,7 -2.11426,3.12284 -4.89133,5.86497 -8,8 -2.70618,1.8586 -5.75579,3.49712 -9,4 -2.98284,0.46236 -6.27945,0.30756 -9,-1 -2.97415,-1.42945 -5.12373,-4.2855 -7,-7 -6.44686,-9.32703 -10.09887,-20.35403 -14,-31 -0.83495,-2.27854 -1.66341,-4.59675 -2,-7 -0.23117,-1.65056 -0.23117,-3.34944 0,-5 0.33659,-2.40325 1.03412,-4.7738 2,-7 0.77362,-1.78306 1.75353,-3.50866 3,-5 2.27238,-2.7188 5.0581,-5.02495 8,-7 1.8565,-1.24636 3.82375,-2.48626 6,-3 2.59533,-0.61267 5.40467,-0.61267 8,0 1.45083,0.3425 2.79067,1.12837 4,2 1.52969,1.10254 4,4 4,4 l 24,-15 2,-1.28121 c 0,0 -3.52517,-6.82566 -6,-9.71879 -1.99767,-2.33533 -4.40184,-4.35866 -7,-6 -2.77551,-1.75338 -5.78856,-3.31849 -9,-4 z m 464,-3 c -3.12144,0.50654 -6.15928,1.61065 -9,3 -2.15928,1.05607 -4.21934,2.38537 -6,4 -3.50959,3.18233 -6.49883,6.97649 -9,11 -2.12639,3.42063 -3.36029,7.3212 -5,11 -0.67785,1.52079 -1.37833,3.03257 -2,4.57718 -0.71935,1.7873 -1.36196,3.60491 -2,5.42282 -2.0945,5.96767 -4.16999,11.94599 -6,18 -0.49974,1.65323 -0.9456,3.32304 -1.35877,5 -0.29906,1.21382 -0.5577,2.43743 -0.81036,3.66175 C 836.53329,345.10373 836.26126,346.551 836,348 c -0.17996,0.99811 -0.45101,1.98737 -0.50738,3 -0.16702,3.00012 0.2429,6.0069 0.50738,9 0.0591,0.66889 0.13824,1.33643 0.24106,2 0.2078,1.34112 0.46775,2.67449 0.75894,4 0.58977,2.68472 1.01643,5.43326 2,8 2.29431,5.98726 5.19074,11.84242 9,17 2.80062,3.79193 6.35443,7.01135 10,10 2.78832,2.28588 5.82108,4.29869 9,6 3.82059,2.04472 7.80432,3.91648 12,5 2.92258,0.75474 5.98172,0.96672 9,1 1.0639,0.0117 2.1254,-0.13701 3.17939,-0.28245 1.28364,-0.17714 2.57638,-0.35562 3.82061,-0.71755 3.44723,-1.00276 6.94607,-2.11257 10,-4 3.4144,-2.11021 6.43795,-4.91017 9,-8 2.48126,-2.9924 6,-10 6,-10 l -23,-18 c 0,0 -3.65207,5.01716 -6,7 -1.48496,1.25406 -3.10336,2.57513 -5,3 -3.26894,0.73229 -6.82015,0.0539 -10,-1 -1.84496,-0.61149 -3.52378,-1.73566 -5,-3 -1.97732,-1.69351 -3.73306,-3.72565 -5,-6 -1.5389,-2.76257 -2.49346,-5.87856 -3,-9 -0.32036,-1.97417 -0.27012,-4.01832 0,-6 0.84104,-6.17012 5,-18 5,-18 0,0 4.61252,-15.40244 9,-22 2.08831,-3.14025 4.79199,-6.01734 8,-8 0.89666,-0.55417 1.95104,-0.89613 3,-1 2.67434,-0.26481 5.45967,0.12309 8,1 1.83727,0.63421 3.50866,1.75353 5,3 2.7188,2.27238 5.23847,4.9255 7,8 1.04805,1.82922 1.66231,3.91904 2,6 0.64073,3.94835 0.64073,8.05165 0,12 -0.16885,1.04048 -1,3 -1,3 v 0 0 l 25,15.26845 c 0,0 2.42925,-4.71027 3,-7.26845 1.52601,-6.83977 1.80663,-14.03865 1,-21 -0.55864,-4.82115 -2.09576,-9.53576 -4,-14 -1.81691,-4.25949 -4.17272,-8.33245 -7,-12 -3.45371,-4.48017 -7.62532,-8.41362 -12,-12 -2.78832,-2.28588 -5.84123,-4.26156 -9,-6 -2.87615,-1.58289 -5.8959,-2.93121 -9,-4 -2.59899,-0.89487 -5.27186,-1.66415 -8,-2 -3.63919,-0.44801 -7.38068,-0.58733 -11,0 z M 663,257 v 0 0 0 l 10,35 h -10 -1 -10 -1 z m -188,-13 -25.07632,11 v 0 0 0 0 0 0 0 0 0 L 483,372 507,362 Z m 31,-10 v 0 0 0 0 0 0 0 0 0 0 0 l 22,122 36,-9 v 0 0 0 0 l 39,-9 v -8 0 -7 0 -12 l -3,0.57718 -5,1 -12.16913,2.40806 L 578,316 l -25,5.70403 -4.67651,1.05704 v 0 0 0 0 0 0 0 0 0 0 0 0 L 529,227 Z m 214,110 v 0 l 19,-102.58772 v 0 0 0 0 L 720,344 l 6.35877,-33 v 0 0 0 0 L 720,344 l 25,6 v 0 0 l 14,-73 v 0 0 0 0 0 0 0 l 23,85 v 0 0 0 0 0 0 l 28,10 v 0 l 29,-120 v 0 0 0 0 L 814,242.44532 796,318 v 0 0 0 l -23,-89 v 0 0 0 0 0 0 l -27,-7 z M 654,214 v 0 0 0 0 0 0 0 0 0 0 0 0 0 0 0 l -43,126 h 23 L 638,327.17313 640.50738,320 H 658 h 1 21 l 2.33333,7.66667 2.33334,7.66666 L 687,343 h 25 L 676,214 v 0 0 0 0 0 0 0 0 0 0 0 0 0 h -4 -1 z m -24,-19 16,12 v 0 0 l 18,-14 15,14 3.33333,-1.69127 L 697,197 v 0 l -25,-25 h -15 z"
     id="path1"
     sodipodi:nodetypes="ccccccccccccccccccccccccccccccssssssscccccccsccccccccccccccccccccccccccccccccccccccccccccccccccccccccccccccccccccccccccccccccccccccccccaaccccccccccccccccccccccccccccaaaaaaaaaaccccccccccccccccccccccccccccccccccccccccccccccccccccccccccccccccccccccccccccccccccccccccccccccccccccccccccccccccccccccccccccccccccccccccccccccccccccacaccaccccacccaaaaaaaaaaaaaaaaaaaccaaaaaaaaaaaaaaaaaaacaaaccacccaacccccccccccccccccccccccccccccccccccccccccccccccccccccccccccccccccccccccccccccccccccccccccccccccccccccccccccccccccccccccccccccccccccccccccacccccacccccccccccaaccccaacccccccccccccccccccccccccccccccccccccccccccacaccacaccacccacaaaaaaaaaaaaaaaaaaaaaaaaaaacccccccaaaaaaaaaacacaaaccaaaaaaaaaaaaaaaaaaaaaaaaaaaaccaaaaaaacaaaaaaaacccccaacacaccccccccccccccccccccccccccccccccccccccccccccccccccccccccccccccccccccccccccccccccccccccccccccccccccccccccccccccccccccccccccccccccccccccccccccccccccccccccccccccccccc"
     style="fill:#003366;stroke-width:0.999894;stroke-dasharray:none;fill-opacity:1" />
  <path
     fill="#ed161f"
     fill-rule="evenodd"
     d="M 722,580 728.97048,556.16913 736,580 v 0 0 h -1 -12 z m 2,-65 h -2 v 0 0 0 0 0 0 0 0 0 l -29,102 h 1 16 2 l 4,-17 h 26.52214 l 0.47786,2 2,15 h 3 16 L 738,515 v 0 0 0 0 0 0 0 0 0 0 0 0 h -2 z m -124,0 v 101 h 18 V 515 Z m -76,0 v 0 0 0 0 0 0 0 0 0 l 26,101 h 15 l 27,-101 v 0 0 0 0 0 0 0 H 573 L 558,575 548.94415,540 543,515 Z m 138,-2 c -3.01384,0.16692 -6.08127,0.23051 -9,1 -2.45472,0.64716 -4.89788,1.57679 -7,3 -3.12284,2.11426 -5.945,4.83785 -8,8 -2.52992,3.89295 -4.15242,8.43523 -5,13 -0.91279,4.91598 -0.69351,10.04833 0,15 0.33659,2.40325 1.01392,4.78267 2,7 1.27781,2.87334 2.75627,5.79669 5,8 2.77361,2.72364 6.4086,4.51239 10,6 5.079,2.10379 11.2161,1.2914 16,4 2.4613,1.39356 5.08207,3.32467 6,6 0.87217,2.54196 0.18072,5.58585 -1,8 -0.62134,1.27041 -1.797,2.2565 -3,3 -1.79333,1.10834 -3.91904,1.66231 -6,2 -1.97417,0.32036 -4.01933,0.2774 -6,0 -2.40325,-0.33659 -4.79741,-0.98143 -7,-2 -3.27257,-1.51337 -9,-6 -9,-6 l -4,-1 -7,18 c 0,0 8.90796,6.79798 14,9 3.78441,1.63654 7.89329,2.63268 12,3 4.99117,0.44642 10.16397,0.31297 15,-1 2.87727,-0.78117 5.63359,-2.18644 8,-4 3.18587,-2.44158 6.03152,-5.50197 8,-9 2.22347,-3.95117 3.46607,-8.49773 4,-13 0.62931,-5.30655 0.38943,-10.84005 -1,-16 -0.969,-3.5986 -2.63726,-7.11792 -5,-10 -2.40953,-2.93915 -5.60465,-5.29235 -9,-7 -5.56321,-2.79795 -12.48472,-2.10873 -18,-5 -2.30579,-1.20876 -4.89575,-2.64237 -6,-5 -1.13108,-2.41491 -1.13108,-5.58509 0,-8 1.10425,-2.35763 3.51736,-4.21623 6,-5 3.82765,-1.20839 8.17965,-0.23127 12,1 3.69989,1.19244 10,6 10,6 v 0 c 3.19824,-6.16156 7.21181,-11.91719 10,-18.28321 L 684,520 c 0,0 -6.48599,-3.75878 -10,-5 -2.94057,-1.03867 -6.03905,-1.66472 -9.1396,-2 -0.94794,-0.10251 -1.90839,-0.0527 -2.8604,0 z"
     id="path2"
     sodipodi:nodetypes="ccccccccccccccccccccccccccccccccccccccccccccccccccccccccccccccccccccccccccacaaaaaaaaaaaaaaaacccaaaaaaaaaaaaaacccca" />
</svg>
